<svg width="512" height="512" xmlns="http://www.w3.org/2000/svg">

 <g>
  <title>background</title>
  <rect fill="none" id="canvas_background" height="402" width="582" y="-1" x="-1"/>
 </g>
 <g>
  <title>Layer 1</title>
  <path transform="rotate(90.04064178466797 249.87593078613278,255.19700622558597) " id="svg_1" d="m441.875911,423.896988l-113.3,-113.4c20.8,-26 33.3,-59.1 33.3,-95.1c0,-84.1 -68.1,-152.2 -152,-152.2c-84,0 -152,68.2 -152,152.2s68.1,152.2 152,152.2c36.2,0 69.4,-12.7 95.5,-33.8l113.2,113.4l23.3,-23.3zm-328.2,-112.1c-25.7,-25.7 -39.8,-59.9 -39.8,-96.3s14.2,-70.6 39.8,-96.3s59.9,-40 96.2,-40c36.3,0 70.5,14.2 96.2,39.9s39.8,59.9 39.8,96.3s-14.2,70.6 -39.8,96.3c-25.7,25.7 -59.9,39.9 -96.2,39.9c-36.3,0.1 -70.5,-14.1 -96.2,-39.8z"/>
 </g>
</svg>