<svg width="32" height="32" xmlns="http://www.w3.org/2000/svg">

 <g>
  <title>background</title>
  <rect fill="none" id="canvas_background" height="402" width="582" y="-1" x="-1"/>
 </g>
 <g>
  <title>Layer 1</title>
  <path id="svg_2" d="m24,14l0,-6c0,-4.409 -3.588,-8 -8,-8c-4.409,0 -8,3.591 -8,8l0,6c-2.209,0 -4,1.791 -4,4l0,10c0,2.209 1.791,4 4,4l16,0c2.209,0 4,-1.791 4,-4l0,-10c0,-2.209 -1.791,-4 -4,-4zm-7,9.693l0,3.307c0,0.554 -0.446,1 -1,1c-0.553,0 -1,-0.446 -1,-1l0,-3.307c-0.586,-0.349 -1,-0.961 -1,-1.693c0,-1.104 0.896,-2 2,-2c1.104,0 2,0.896 2,2c0,0.732 -0.411,1.346 -1,1.693zm3,-9.693l-8,0l0,-6c0,-2.207 1.796,-4 4,-4c2.205,0 4,1.793 4,4l0,6z"/>
 </g>
</svg>